# xmcd CD database file
#
# Track frame offsets:
#	150
#	11902
#	18182
#	40180
#	66652
#	72615
#	91560
#	97857
#	126137
#	149012
#	166262
#	181372
#	198287
#	225565
#	244292
#	266797
#
# Disc length: 3857 seconds
#
# Revision: 4
# Processed by: cddbd v1.5.2PL0 Copyright (c) Steve Scherf et al.
# Submitted via: CDex 1.51
#
DISCID=e10f0f10
DTITLE=Dead Can Dance - A Passage In Time
DYEAR=1991
DGENRE=New Age
TTITLE0=The Arrival And The Reunion
TTITLE1=Saltarello
TTITLE2=Mephisto
TTITLE3=The Song Of The Sibyl 
TTITLE4=Fortune Presents Gifts Not According To The Book
TTITLE5=As The Bell Rings The Maypole Spins
TTITLE6=The End Of Words
TTITLE7=Black Sun
TTITLE8=Wilderness 
TTITLE9=The Promised Womb
TTITLE10=The Garden Of Zephirus 
TTITLE11=Radharc 
TTITLE12=Fortune Presents Gifts Not According To The Book
TTITLE13=In The Kingdom Of The Blind The One Eyed Are Kings
TTITLE14=Bird
TTITLE15=Spirit
EXTD=YEAR: 1991
EXTT0=
EXTT1=
EXTT2=
EXTT3=
EXTT4=
EXTT5=
EXTT6=
EXTT7=
EXTT8=
EXTT9=
EXTT10=
EXTT11=
EXTT12=
EXTT13=
EXTT14=
EXTT15=
PLAYORDER=
